<?xml version="1.0" encoding="UTF-8" standalone="no"?>
<!--
  Copyright (C) Copyright 2024-2029
  This file is part of ScrapperD.
  
  ScrapperD is free software: you can redistribute it and/or modify
  it under the terms of the GNU General Public License as published by
  the Free Software Foundation, either version 3 of the License, or
  (at your option) any later version.
  
  ScrapperD is distributed in the hope that it will be useful,
  but WITHOUT ANY WARRANTY; without even the implied warranty of
  MERCHANTABILITY or FITNESS FOR A PARTICULAR PURPOSE.  See the
  GNU General Public License for more details.
  
  You should have received a copy of the GNU General Public License
  along with ScrapperD.  If not, see <http://www.gnu.org/licenses/>.
-->

<svg
   version="1.1"
   x="0px"
   y="0px"
   viewBox="0 0 128 128"
   enable-background="new 0 0 90 90"
   xml:space="preserve"
   id="svg8"
   sodipodi:docname="logo.svg"
   inkscape:export-xdpi="306.51132"
   inkscape:export-ydpi="306.51132"
   inkscape:version="1.2.2 (b0a8486541, 2022-12-01)"
   width="128"
   height="128"
   xmlns:inkscape="http://www.inkscape.org/namespaces/inkscape"
   xmlns:sodipodi="http://sodipodi.sourceforge.net/DTD/sodipodi-0.dtd"
   xmlns="http://www.w3.org/2000/svg"
   xmlns:svg="http://www.w3.org/2000/svg"><defs
     id="defs12" /><sodipodi:namedview
     id="namedview10"
     pagecolor="#505050"
     bordercolor="#eeeeee"
     borderopacity="1"
     inkscape:showpageshadow="0"
     inkscape:pageopacity="0"
     inkscape:pagecheckerboard="0"
     inkscape:deskcolor="#505050"
     showgrid="false"
     inkscape:zoom="7.44"
     inkscape:cx="45.228495"
     inkscape:cy="40.389785"
     inkscape:window-width="1920"
     inkscape:window-height="1022"
     inkscape:window-x="0"
     inkscape:window-y="0"
     inkscape:window-maximized="1"
     inkscape:current-layer="svg8" /><path
     d="m 121.62838,5.3704801 c -5.82734,-5.8273068 -15.27651,-5.8273068 -21.1054,0 C 95.300329,10.593101 94.762138,18.721631 98.899099,24.547411 L 81.177464,42.26903 c -3.136363,-2.180587 -6.943893,-3.461125 -11.045292,-3.461125 -4.443173,0 -8.539897,1.503234 -11.813872,4.024058 L 45.870298,30.383995 c 2.615173,-4.416876 2.024393,-10.205548 -1.77231,-14.002251 -4.497327,-4.497303 -11.787634,-4.497303 -16.284918,0 -4.497328,4.495737 -4.497328,11.787626 0,16.28491 3.809082,3.809096 9.62092,4.390587 14.042435,1.747605 l 12.508307,12.508274 c -1.855839,2.587333 -3.091522,5.649463 -3.487418,8.963626 H 31.595865 C 30.316871,48.943848 24.235935,43.682552 16.923971,43.684102 8.6809914,43.684102 2,50.36509 2,58.608066 c 0,8.241444 6.6809914,14.92398 14.923971,14.92398 7.225366,0 13.252175,-5.136006 14.627035,-11.956197 h 19.483131 c 1.444444,8.201236 8.05894,14.640967 16.345226,15.824064 V 97.64703 c -6.976373,1.251115 -12.271684,7.34753 -12.271684,14.68426 0,8.24147 6.680996,14.92388 14.923969,14.92388 8.241439,0 14.923964,-6.6809 14.923964,-14.92388 0,-7.20226 -5.101984,-13.210445 -11.886579,-14.613148 V 77.373619 c 9.306983,-1.418133 16.459677,-9.475584 16.459677,-19.172288 0,-4.54523 -1.571296,-8.728573 -4.198813,-12.038136 L 103.01134,28.478656 c 5.77777,3.719401 13.5599,3.052843 18.61704,-2.004279 5.82883,-5.827315 5.82883,-15.276591 0,-21.1038969 z M 70.133723,71.724158 c -7.455804,0 -13.522847,-6.065479 -13.522847,-13.522827 0,-7.455788 6.065505,-13.522816 13.522847,-13.522816 7.457346,0 13.522796,6.06547 13.522796,13.522816 -9.82e-4,7.455808 -6.066996,13.522827 -13.522796,13.522827 z"
     id="path2"
     inkscape:export-xdpi="306.51132"
     inkscape:export-ydpi="306.51132"
     style="stroke-width:1.54642" /></svg>
